# xmcd
#
# Track frame offsets:
# 150
# 10811
# 26939
# 35646
# 48019
# 58652
# 72052
# 88720
# 99040
# 119491
# 133830
#
# Disc length: 2092 seconds
#
# Revision: 0
# Processed by: cddbd v1.4PL0 Copyright (c) Steve Scherf et al.
# Submitted via: Audion 3.0.2 (http://www.panic.com/audion/)
#
DISCID=8e082a0b
DTITLE=Thanksgiving - We Could Be Each Other's Evidence
DYEAR=1900
DGENRE=
TTITLE0=Before You Died
TTITLE1=Comets
TTITLE2=Bullseyes
TTITLE3=Feel Like You
TTITLE4=River Way
TTITLE5=Water
TTITLE6=Cotton Belt
TTITLE7=We Can Be Bad
TTITLE8=Bring Me Under
TTITLE9=Continents
TTITLE10=Family Shield
EXTD=
EXTT0=
EXTT1=
EXTT2=
EXTT3=
EXTT4=
EXTT5=
EXTT6=
EXTT7=
EXTT8=
EXTT9=
EXTT10=
PLAYORDER=
